<svg id="visual" viewBox="0 0 900 600" width="900" height="600" xmlns="http://www.w3.org/2000/svg" xmlns:xlink="http://www.w3.org/1999/xlink" version="1.1"><rect x="0" y="0" width="900" height="600" fill="#001220"></rect><defs><linearGradient id="grad1_0" x1="33.3%" y1="0%" x2="100%" y2="100%"><stop offset="20%" stop-color="#001220" stop-opacity="1"></stop><stop offset="80%" stop-color="#001220" stop-opacity="1"></stop></linearGradient></defs><defs><linearGradient id="grad2_0" x1="0%" y1="0%" x2="66.7%" y2="100%"><stop offset="20%" stop-color="#001220" stop-opacity="1"></stop><stop offset="80%" stop-color="#001220" stop-opacity="1"></stop></linearGradient></defs><g transform="translate(900, 0)"><path d="M0 486.7C-62.5 479.9 -125 473 -186.3 449.7C-247.6 426.4 -307.7 386.6 -332.3 332.3C-357 278.1 -346 209.3 -365.9 151.5C-385.7 93.7 -436.2 46.9 -486.7 0L0 0Z" fill="#46dfbe"></path></g><g transform="translate(0, 600)"><path d="M0 -486.7C68.6 -484.5 137.2 -482.2 186.3 -449.7C235.4 -417.2 265 -354.4 307.6 -307.6C350.2 -260.8 405.9 -230 437.9 -181.4C470 -132.8 478.4 -66.4 486.7 0L0 0Z" fill="#46dfbe"></path></g></svg>